HIERARCHY
ROOT SpineBase
{
  OFFSET 0.000000 0.000000 0.000000
  CHANNELS 6 Xposition Yposition Zposition Zrotation Xrotation Yrotation
  JOINT SpineMid
  {
    OFFSET -0.000000 33.179127 0.000000
    CHANNELS 3 Zrotation Xrotation Yrotation
    JOINT SpineShoulder
    {
      OFFSET -0.249764 24.720429 -0.657789
      CHANNELS 3 Zrotation Xrotation Yrotation
      JOINT Neck
      {
        OFFSET -0.156997 8.175741 -0.539268
        CHANNELS 3 Zrotation Xrotation Yrotation
        JOINT Head
        {
          OFFSET -2.406663 7.594441 8.655216
          CHANNELS 3 Zrotation Xrotation Yrotation
          End Site
          {
            OFFSET 0 0 0
          }
        }
      }
      JOINT ShoulderLeft
      {
        OFFSET -10.393898 -8.649658 -14.927041
        CHANNELS 3 Zrotation Xrotation Yrotation
        JOINT ElbowLeft
        {
          OFFSET -1.578806 -26.066776 1.189292
          CHANNELS 3 Zrotation Xrotation Yrotation
          JOINT WristLeft
          {
            OFFSET -1.155654 -21.562511 -1.241073
            CHANNELS 3 Zrotation Xrotation Yrotation
            JOINT HandLeft
            {
              OFFSET 1.918621 2.015280 4.259072
              CHANNELS 3 Zrotation Xrotation Yrotation
              JOINT HandTipLeft
              {
                OFFSET -0.817719 -2.666117 -1.022123
                CHANNELS 3 Zrotation Xrotation Yrotation
                End Site
                {
                  OFFSET 0 0 0
                }
              }
              JOINT ThumbLeft
              {
                OFFSET -4.324366 2.263383 -3.024713
                CHANNELS 3 Zrotation Xrotation Yrotation
                End Site
                {
                  OFFSET 0 0 0
                }
              }
            }
          }
        }
      }
      JOINT ShoulderRight
      {
        OFFSET 0.612191 -2.406165 -10.496880
        CHANNELS 3 Zrotation Xrotation Yrotation
        JOINT ElbowRight
        {
          OFFSET -11.496593 -19.985561 -5.928083
          CHANNELS 3 Zrotation Xrotation Yrotation
          JOINT WristRight
          {
            OFFSET -2.125901 -25.616609 5.198533
            CHANNELS 3 Zrotation Xrotation Yrotation
            JOINT HandRight
            {
              OFFSET 0.516791 -7.048163 1.580020
              CHANNELS 3 Zrotation Xrotation Yrotation
              JOINT HandTipRight
              {
                OFFSET -1.806900 -7.514372 0.274774
                CHANNELS 3 Zrotation Xrotation Yrotation
                End Site
                {
                  OFFSET 0 0 0
                }
              }
              JOINT ThumbRight
              {
                OFFSET -4.218652 0.863325 -0.924684
                CHANNELS 3 Zrotation Xrotation Yrotation
                End Site
                {
                  OFFSET 0 0 0
                }
              }
            }
          }
        }
      }
    }
  }
  JOINT HipLeft
  {
    OFFSET -5.602912 0.261919 -1.414939
    CHANNELS 3 Zrotation Xrotation Yrotation
    JOINT KneeLeft
    {
      OFFSET 16.241438 -25.475618 10.323005
      CHANNELS 3 Zrotation Xrotation Yrotation
      JOINT AnkleLeft
      {
        OFFSET 3.420850 -29.053483 2.378368
        CHANNELS 3 Zrotation Xrotation Yrotation
        JOINT FootLeft
        {
          OFFSET 2.951313 -2.626198 -12.047178
          CHANNELS 3 Zrotation Xrotation Yrotation
          End Site
          {
            OFFSET 0 0 0
          }
        }
      }
    }
  }
  JOINT HipRight
  {
    OFFSET 4.181081 1.871919 -5.576901
    CHANNELS 3 Zrotation Xrotation Yrotation
    JOINT KneeRight
    {
      OFFSET -14.136072 -23.198628 0.616332
      CHANNELS 3 Zrotation Xrotation Yrotation
      JOINT AnkleRight
      {
        OFFSET 8.838019 -34.925885 -1.460385
        CHANNELS 3 Zrotation Xrotation Yrotation
        JOINT FootRight
        {
          OFFSET 2.480349 -2.817602 -10.979221
          CHANNELS 3 Zrotation Xrotation Yrotation
          End Site
          {
            OFFSET 0 0 0
          }
        }
      }
    }
  }
}
MOTION
Frames: 6
Frame Time: 0.033333
65.616839 61.583758 328.772400 0.000000 0.000000 23.044165 -0.000000 0.000000 -23.044165 -0.000000 0.000000 0.000000 -0.000000 0.000000 0.000000 0.000000 0.000000 0.000000 -0.000000 0.000000 0.000000 -0.000000 0.000000 0.000000 -0.000000 0.000000 0.000000 -0.000000 0.000000 0.000000 0.000000 0.000000 0.000000 0.000000 0.000000 0.000000 -0.000000 0.000000 0.000000 -0.000000 0.000000 0.000000 -0.000000 0.000000 0.000000 -0.000000 0.000000 0.000000 0.000000 0.000000 0.000000 0.000000 0.000000 0.000000 -0.000000 0.000000 -23.044165 -0.000000 0.000000 0.000000 -0.000000 0.000000 0.000000 0.000000 0.000000 0.000000 -0.000000 0.000000 -23.044165 -0.000000 0.000000 0.000000 -0.000000 0.000000 0.000000 0.000000 0.000000 0.000000
65.579505 61.671090 328.926029 -0.109427 -0.256981 23.051115 0.201313 0.193616 -23.051701 -0.000000 0.000000 0.000000 -0.643708 0.891695 1.014005 0.000000 0.000000 0.000000 -0.000000 0.000000 0.000000 -0.000000 0.000000 0.000000 1.207693 0.945652 -3.436213 -7.448199 -4.892900 6.643503 0.000000 0.000000 0.000000 0.000000 0.000000 0.000000 -0.000000 0.000000 0.000000 -1.003045 0.458671 -0.237629 1.793176 -2.460215 0.292878 -3.068057 3.497492 -0.343440 0.000000 0.000000 0.000000 0.000000 0.000000 0.000000 1.004648 0.221537 -22.544040 -0.731256 -0.333751 -0.512701 -1.704838 -4.845174 2.914747 0.000000 0.000000 0.000000 0.201313 0.193616 -23.051701 -0.000000 0.000000 0.000000 -0.000000 0.000000 0.000000 0.000000 0.000000 0.000000
65.538271 61.736673 329.060707 -0.196959 -0.439252 23.084469 0.353419 0.326851 -23.086232 -0.368441 -0.766485 -0.041470 -0.828797 2.192335 1.861998 0.000000 0.000000 0.000000 -0.700039 0.073269 0.037586 1.068395 0.692778 0.000327 2.208931 1.924776 -6.421690 -11.218476 -8.727474 10.915985 0.000000 0.000000 0.000000 0.000000 0.000000 0.000000 0.367919 0.766736 0.036544 -1.865628 0.880732 -0.437478 3.296684 -4.544748 0.574053 -5.486614 6.424738 -0.437936 0.000000 0.000000 0.000000 0.000000 0.000000 0.000000 1.842801 0.373821 -22.152685 -1.895742 -1.259894 -1.079500 -2.649632 -9.228600 5.851539 0.000000 0.000000 0.000000 0.353419 0.326851 -23.086232 -0.000000 0.000000 0.000000 -0.000000 0.000000 0.000000 0.000000 0.000000 0.000000
65.493137 61.780507 329.176434 -0.262361 -0.546183 23.146593 -0.270994 -0.220637 -23.168245 -0.034242 -0.084272 -0.028443 -1.197771 2.563836 2.467117 0.000000 0.000000 0.000000 -1.036418 0.026987 0.044174 1.495424 0.912095 0.001085 2.985760 2.969507 -8.930344 -13.108376 -11.787695 13.874284 0.000000 0.000000 0.000000 0.000000 0.000000 0.000000 0.424129 0.238041 0.459797 -2.531329 1.981176 -0.983382 4.498587 -6.264426 0.822238 -7.284998 8.793426 -0.396243 0.000000 0.000000 0.000000 0.000000 0.000000 0.000000 2.495692 0.451364 -21.880283 -2.547117 -1.609222 -1.461444 -3.599237 -13.524067 8.137768 0.000000 0.000000 0.000000 1.326913 0.477566 -23.389260 -0.768255 -0.417723 0.230365 -0.000000 0.000000 0.000000 0.000000 0.000000 0.000000
65.444102 61.802592 329.273210 -0.305459 -0.577366 23.239226 -0.266180 -0.227607 -23.262602 -0.026485 -0.080731 -0.029638 -1.536716 2.469853 2.858771 0.000000 0.000000 0.000000 -1.370978 -0.081017 0.040049 1.857676 1.052357 0.003966 3.523034 4.111226 -10.945344 -13.844626 -14.261212 15.919455 0.000000 0.000000 0.000000 0.000000 0.000000 0.000000 0.531477 0.230403 0.460720 -3.166540 2.360366 -1.099293 5.387507 -7.630714 1.019766 -8.478761 10.624729 -0.303141 0.000000 0.000000 0.000000 0.000000 0.000000 0.000000 2.948144 0.450122 -21.734928 -2.989902 -1.787552 -1.722659 -4.149298 -16.403404 9.416272 0.000000 0.000000 0.000000 1.567356 0.485987 -23.524428 -0.940550 -0.492214 0.269524 -0.000000 0.000000 0.000000 0.000000 0.000000 0.000000
65.391166 61.802929 329.351036 -0.326148 -0.532611 23.363488 -0.213298 -0.201319 -23.385471 -0.009121 -0.061424 -0.026639 -1.847818 1.912556 3.036811 0.000000 0.000000 0.000000 -1.707761 -0.253707 0.023514 2.158965 1.116434 0.009870 3.804487 5.379354 -12.452089 -13.749357 -16.253557 17.223255 0.000000 0.000000 0.000000 0.000000 0.000000 0.000000 0.450580 0.863793 0.042929 -3.532298 1.881635 -0.815819 5.953098 -8.653913 1.152590 -9.074058 11.940742 -0.218775 0.000000 0.000000 0.000000 0.000000 0.000000 0.000000 3.189473 0.367980 -21.722322 -3.216205 -1.798995 -1.855368 -4.287223 -17.176590 9.384202 0.000000 0.000000 0.000000 1.708323 0.419037 -23.670647 -1.073108 -0.535173 0.290890 -0.000000 0.000000 0.000000 0.000000 0.000000 0.000000
